# xmcd CD database file
#
# Track frame offsets:
#	150
#	29850
#	58550
#	69310
#	89307
#	109410
#	130050
#	157262
#	172945
#	188545
#	222225
#	233925
#	269322
#
# Disc length: 3730 seconds
#
# Revision: 0
# Processed by: cddbd v1.5.1PL2 Copyright (c) Steve Scherf et al.
# Submitted via: CDex 1.51
#
DISCID=b90e900d
DTITLE=Gabriele Hasler and Georg Ruby - Spider´s Lovesong
DYEAR=1993
DGENRE=Jazz
TTITLE0=Back on Earth
TTITLE1=Hotel Dead End
TTITLE2=Wordless 1
TTITLE3=Dancing on the Ceiling
TTITLE4=Beams
TTITLE5=Dialogue 1
TTITLE6=My One and Only Love
TTITLE7=Paradox
TTITLE8=Dialogue 2
TTITLE9=The new Ark
TTITLE10=Wordless 2
TTITLE11=Spider´s Lovesong
TTITLE12=Bricks
EXTD=YEAR: 1993
EXTT0=
EXTT1=
EXTT2=
EXTT3=
EXTT4=
EXTT5=
EXTT6=
EXTT7=
EXTT8=
EXTT9=
EXTT10=
EXTT11=
EXTT12=
PLAYORDER=
